<svg xmlns="http://www.w3.org/2000/svg" viewBox="0 0 240 240" role="img" aria-labelledby="title">
  <title id="title">Apple</title>
  <rect width="240" height="240" rx="40" fill="#fff7df"/>
  <path d="M136 70c-2-24 16-36 35-39 2 24-14 38-35 39Z" fill="#0e9f91"/>
  <path d="M121 77c6-18 17-32 32-42" fill="none" stroke="#12333f" stroke-width="8" stroke-linecap="round"/>
  <path d="M119 82c-33-24-73 2-72 45 1 47 32 85 60 76 10-3 17-3 27 0 28 9 59-29 60-76 1-43-40-69-73-45Z" fill="#ff6f61"/>
  <path d="M78 128c1-24 16-39 34-42" fill="none" stroke="#ffd3cf" stroke-width="12" stroke-linecap="round"/>
</svg>
