<svg xmlns="http://www.w3.org/2000/svg" viewBox="0 0 240 240" role="img" aria-labelledby="title"><title id="title">Negotiation</title><rect width="240" height="240" rx="40" fill="#f7fbfa"/><path d="M44 74h78c10 0 18 8 18 18v35c0 10-8 18-18 18H87l-31 25v-25H44c-10 0-18-8-18-18V92c0-10 8-18 18-18Z" fill="#ffd166"/><path d="M196 103h-78c-10 0-18 8-18 18v35c0 10 8 18 18 18h35l31 25v-25h12c10 0 18-8 18-18v-35c0-10-8-18-18-18Z" fill="#d8f2ef"/><path d="M61 106h65M128 138h51" stroke="#12333f" stroke-width="8" stroke-linecap="round"/></svg>
