<svg xmlns="http://www.w3.org/2000/svg" viewBox="0 0 240 240" role="img" aria-labelledby="title">
  <title id="title">Rice</title>
  <rect width="240" height="240" rx="40" fill="#fff8ec"/>
  <path d="M60 122c14 51 30 72 60 72s46-21 60-72H60Z" fill="#0e9f91"/>
  <path d="M59 121c0 16 33 29 61 29s61-13 61-29-33-29-61-29-61 13-61 29Z" fill="#f6ffff" stroke="#12333f" stroke-width="7"/>
  <path d="M87 104c7-20 21-32 43-38M120 96c10-20 27-30 49-30M109 116c14-16 30-22 49-16" stroke="#ffd166" stroke-width="7" stroke-linecap="round"/>
</svg>
