<svg xmlns="http://www.w3.org/2000/svg" viewBox="0 0 240 240" role="img" aria-labelledby="title">
  <title id="title">Ticket</title>
  <rect width="240" height="240" rx="40" fill="#f8f3ff"/>
  <path d="M52 82c0-9 7-16 16-16h124c9 0 16 7 16 16v28c-12 0-22 10-22 22s10 22 22 22v24c0 9-7 16-16 16H68c-9 0-16-7-16-16v-24c12 0 22-10 22-22s-10-22-22-22V82Z" fill="#ff6f61"/>
  <path d="M116 74v112" stroke="#fff" stroke-width="8" stroke-linecap="round" stroke-dasharray="10 12"/>
  <path d="M82 101h28M82 130h28M142 112h38M142 143h28" stroke="#fff" stroke-width="8" stroke-linecap="round"/>
</svg>
